<?xml version="1.0" encoding="UTF-8" standalone="no"?>
<!-- Created with Inkscape (http://www.inkscape.org/) -->

<svg
   xmlns:dc="http://purl.org/dc/elements/1.1/"
   xmlns:cc="http://creativecommons.org/ns#"
   xmlns:rdf="http://www.w3.org/1999/02/22-rdf-syntax-ns#"
   xmlns:svg="http://www.w3.org/2000/svg"
   xmlns="http://www.w3.org/2000/svg"
   xmlns:sodipodi="http://sodipodi.sourceforge.net/DTD/sodipodi-0.dtd"
   xmlns:inkscape="http://www.inkscape.org/namespaces/inkscape"
   height="64px"
   id="svg8341"
   inkscape:version="0.47 r22583"
   sodipodi:docname="Abrir.svg"
   version="1.1"
   width="64px">
  <defs
     id="defs8343">
    <inkscape:perspective
       id="perspective8349"
       inkscape:persp3d-origin="32 : 21.333333 : 1"
       inkscape:vp_x="0 : 32 : 1"
       inkscape:vp_y="0 : 1000 : 0"
       inkscape:vp_z="64 : 32 : 1"
       sodipodi:type="inkscape:persp3d" />
    <inkscape:perspective
       id="perspective8330"
       inkscape:persp3d-origin="0.5 : 0.33333333 : 1"
       inkscape:vp_x="0 : 0.5 : 1"
       inkscape:vp_y="0 : 1000 : 0"
       inkscape:vp_z="1 : 0.5 : 1"
       sodipodi:type="inkscape:persp3d" />
  </defs>
  <sodipodi:namedview
     bordercolor="#666666"
     borderopacity="1.0"
     id="base"
     inkscape:current-layer="layer1"
     inkscape:cx="-63.272727"
     inkscape:cy="32"
     inkscape:document-units="px"
     inkscape:grid-bbox="true"
     inkscape:pageopacity="0.0"
     inkscape:pageshadow="2"
     inkscape:window-height="808"
     inkscape:window-maximized="1"
     inkscape:window-width="1200"
     inkscape:window-x="0"
     inkscape:window-y="30"
     inkscape:zoom="2.75"
     pagecolor="#ffffff"
     showgrid="true" />
  <metadata
     id="metadata8346">
    <rdf:RDF>
      <cc:Work
         rdf:about="">
        <dc:format>image/svg+xml</dc:format>
        <dc:type
           rdf:resource="http://purl.org/dc/dcmitype/StillImage" />
        <dc:title />
      </cc:Work>
    </rdf:RDF>
  </metadata>
  <g
     id="layer1"
     inkscape:groupmode="layer"
     inkscape:label="Layer 1">
    <g
       id="g3663"
       style="fill:#ffffff;stroke:#000000;stroke-width:4.35602989;stroke-miterlimit:4;stroke-dasharray:none"
       transform="matrix(1.3553626,0,0,1.3553626,-0.42751947,4.610779)">
      <g
         id="layer1-6"
         inkscape:label="pixmap"
         style="fill:#ffffff;stroke:#000000;stroke-width:4.35602989;stroke-miterlimit:4;stroke-dasharray:none;display:inline" />
      <g
         id="layer2"
         inkscape:label="vectors"
         style="fill:#ffffff;stroke:#000000;stroke-width:4.35602989;stroke-miterlimit:4;stroke-dasharray:none;display:inline">
        <g
           id="g1197"
           inkscape:r_cx="true"
           inkscape:r_cy="true"
           style="fill:#ffffff;stroke:#000000;stroke-width:19.69499015;stroke-miterlimit:4;stroke-dasharray:none"
           transform="matrix(0.216083,0,0,0.226386,-1.393233,-2.889517)" />
        <path
           d="m 5.6160592,4.6665304 c -0.464977,0 -0.815111,0.2352268 -0.815111,0.726723 l 0,33.0209616 c 0,0.727146 0.487105,1.21156 1.149057,1.21156 l 37.7369538,0 c 0.665802,0 0.930308,-0.452766 0.930308,-1.08656 l 0,-28.9028822 c 0,-0.542965 -0.400287,-0.836558 -0.899058,-0.836558 l -19.109324,0 c -0.337013,0 -0.69668,-0.198426 -0.894481,-0.471287 L 21.112173,5.1284784 c -0.217865,-0.300539 -0.642075,-0.461933 -1.013278,-0.461933 l -14.4828358,-1.5e-5 z"
           id="path895"
           sodipodi:nodetypes="ccccccccccccc"
           style="fill:#ffffff;fill-opacity:1;fill-rule:evenodd;stroke:#000000;stroke-width:4.35602989;stroke-miterlimit:4;stroke-opacity:1;stroke-dasharray:none" />
        <g
           id="g891"
           style="fill:#ffffff;stroke:#000000;stroke-width:23.33133314;stroke-miterlimit:4;stroke-dasharray:none"
           transform="matrix(0.186703,0,0,0.186703,-21.1073,57.62299)" />
        <path
           d="m 4.5318272,21.348802 9.9022098,0 c 0.73882,0 1.3626,-0.32487 1.68054,-0.75244 0.13621,-0.183169 1.26301,-1.50364 1.35235,-1.614968 0.29761,-0.370864 0.76988,-0.647433 1.33671,-0.647433 l 25.701781,0 c 1.00281,0 1.50548,0.551272 1.44347,1.231431 l -1.6875,18.510483 c -0.0984,1.079706 -0.70629,1.258089 -1.50597,1.258089 l -37.7760108,0 c -0.79969,0 -1.36827,-0.552195 -1.44348,-1.23143 l -1.625,-14.675898 c -0.1535,-1.386364 0.94834,-2.077834 2.6209,-2.077834 z"
           id="rect337"
           inkscape:r_cx="true"
           inkscape:r_cy="true"
           sodipodi:nodetypes="czzszssssssss"
           style="color:#000000;fill:#ffffff;fill-opacity:1;fill-rule:evenodd;stroke:#000000;stroke-width:4.35602989;stroke-linecap:butt;stroke-linejoin:round;stroke-miterlimit:4;stroke-opacity:1;stroke-dasharray:none;stroke-dashoffset:0;marker:none;visibility:visible;display:inline;overflow:visible" />
      </g>
    </g>
  </g>
</svg>
