<?xml version="1.0" encoding="UTF-8" standalone="no"?>
<!-- Created with Inkscape (http://www.inkscape.org/) -->

<svg
   xmlns:dc="http://purl.org/dc/elements/1.1/"
   xmlns:cc="http://creativecommons.org/ns#"
   xmlns:rdf="http://www.w3.org/1999/02/22-rdf-syntax-ns#"
   xmlns:svg="http://www.w3.org/2000/svg"
   xmlns="http://www.w3.org/2000/svg"
   xmlns:sodipodi="http://sodipodi.sourceforge.net/DTD/sodipodi-0.dtd"
   xmlns:inkscape="http://www.inkscape.org/namespaces/inkscape"
   width="250"
   height="79"
   id="svg5091"
   version="1.1"
   inkscape:version="0.47 r22583"
   sodipodi:docname="ceibaljam.svg">
  <title
     id="title5172">Isologotipo</title>
  <defs
     id="defs5093">
    <inkscape:perspective
       sodipodi:type="inkscape:persp3d"
       inkscape:vp_x="0 : 526.18109 : 1"
       inkscape:vp_y="0 : 1000 : 0"
       inkscape:vp_z="744.09448 : 526.18109 : 1"
       inkscape:persp3d-origin="372.04724 : 350.78739 : 1"
       id="perspective5099" />
    <inkscape:perspective
       id="perspective5055"
       inkscape:persp3d-origin="0.5 : 0.33333333 : 1"
       inkscape:vp_z="1 : 0.5 : 1"
       inkscape:vp_y="0 : 1000 : 0"
       inkscape:vp_x="0 : 0.5 : 1"
       sodipodi:type="inkscape:persp3d" />
  </defs>
  <sodipodi:namedview
     id="base"
     pagecolor="#ffffff"
     bordercolor="#666666"
     borderopacity="1.0"
     inkscape:pageopacity="0.0"
     inkscape:pageshadow="2"
     inkscape:zoom="1.4"
     inkscape:cx="110.60101"
     inkscape:cy="48.580963"
     inkscape:document-units="px"
     inkscape:current-layer="layer_isologotipo"
     showgrid="false"
     inkscape:window-width="1904"
     inkscape:window-height="636"
     inkscape:window-x="-9"
     inkscape:window-y="0"
     inkscape:window-maximized="0" />
  <metadata
     id="metadata5096">
    <rdf:RDF>
      <cc:Work
         rdf:about="">
        <dc:format>image/svg+xml</dc:format>
        <dc:type
           rdf:resource="http://purl.org/dc/dcmitype/StillImage" />
        <dc:title>Isologotipo</dc:title>
        <dc:creator>
          <cc:Agent>
            <dc:title>Alejandro Rodriguez Juele</dc:title>
          </cc:Agent>
        </dc:creator>
        <dc:rights>
          <cc:Agent>
            <dc:title>ceibalJAM</dc:title>
          </cc:Agent>
        </dc:rights>
        <dc:identifier>org.ceibaljam.isologotipo</dc:identifier>
      </cc:Work>
    </rdf:RDF>
  </metadata>
  <g
     inkscape:label="isologotipo"
     inkscape:groupmode="layer"
     id="layer_isologotipo"
     transform="translate(2.6118337e-6,-973.36216)">
    <g
       transform="matrix(0.75131837,0,0,-0.75131837,-475.63736,1125.3802)"
       id="terron">
      <g
         transform="translate(704.4243,105.6064)"
         id="g308">
        <path
           id="cuerpo"
           style="fill:#33b540;fill-opacity:1;fill-rule:nonzero;stroke:none"
           d="m 0,0 c 0,0 -0.99,0.003 -1.919,0.004 0,3.6 0.009,14.962 0.011,17.995 0,0.004 10e-4,0.008 10e-4,0.012 l 0,33.828 c 0,0.015 -0.002,0.028 -0.002,0.043 l -0.02,20.567 c -0.011,2.332 -1.907,4.212 -4.227,4.202 -1.126,-0.005 -2.185,-0.446 -2.975,-1.246 -0.791,-0.801 -1.225,-1.861 -1.219,-2.987 0,-0.237 0.005,-6.784 0.009,-12.298 l -33.676,0 c -4.574,0 -8.28,-3.708 -8.28,-8.281 l 0,-4.571 -14.856,-0.014 c -2.332,-0.012 -4.209,-1.908 -4.201,-4.229 0.003,-1.124 0.449,-2.183 1.249,-2.976 0.799,-0.789 1.859,-1.223 2.984,-1.216 0.244,0 9.025,0.006 14.824,0.01 l 0,-19.995 c -0.001,-0.036 -0.01,-0.071 -0.01,-0.107 0,-0.306 0.011,-14.614 0.014,-18.737 C -53.222,0.003 -54.211,0 -54.211,0 c -2.373,-0.046 -4.224,-1.973 -4.18,-4.291 0.048,-2.323 1.974,-4.176 4.296,-4.128 l 6.054,0.008 c 2.371,0.043 4.222,1.968 4.176,4.29 l -0.012,13.85 33.539,0 -0.012,-13.85 c -0.046,-2.322 1.809,-4.247 4.177,-4.29 l 6.055,-0.008 C 2.202,-8.467 4.13,-6.614 4.177,-4.291 4.222,-1.973 2.371,-0.046 0,0" />
      </g>
      <g
         transform="translate(671.1978,150.001)"
         id="g312">
        <path
           id="ojo_izq"
           style="fill:#231f20;fill-opacity:1;fill-rule:nonzero;stroke:none"
           d="m 0,0 c 0.222,-1.563 -0.865,-3.009 -2.427,-3.23 -1.559,-0.222 -3.005,0.865 -3.228,2.425 -0.221,1.562 0.864,3.008 2.427,3.228 C -1.666,2.646 -0.221,1.56 0,0" />
      </g>
      <g
         transform="translate(686.0581,152.1084)"
         id="g316">
        <path
           id="ojo_der"
           style="fill:#231f20;fill-opacity:1;fill-rule:nonzero;stroke:none"
           d="m 0,0 c 0.222,-1.562 -0.866,-3.007 -2.427,-3.229 -1.562,-0.222 -3.006,0.865 -3.23,2.427 -0.22,1.56 0.867,3.007 2.427,3.227 C -1.667,2.647 -0.222,1.561 0,0" />
      </g>
      <g
         transform="translate(689.3911,140.6904)"
         id="g320">
        <path
           id="boca"
           style="fill:#ffffff;fill-opacity:1;fill-rule:nonzero;stroke:none"
           d="m 0,0 c 1.399,-8.942 -9.674,-18.043 -17.648,-12.363 -2.683,1.911 -6.94,7.251 -5.409,10.884 0.539,1.277 1.731,0.486 3.024,-0.169 3.092,-1.571 6.768,-1.776 10.066,-0.782 1.68,0.507 3.115,1.325 4.48,2.42 0.83,0.669 3.097,3.333 4.345,2.126 C -0.168,1.175 0,0.004 0,0" />
      </g>
      <g
         transform="translate(647.6968,191.7734)"
         id="g324">
        <path
           id="pelo_claro"
           style="fill:#33b540;fill-opacity:1;fill-rule:nonzero;stroke:none"
           d="m 0,0 c 4.563,7.816 18.894,7.876 21.489,-1.564 0.873,-3.173 0.799,-10.005 -2.682,-11.855 -1.222,-0.649 -1.647,0.718 -2.236,2.044 -1.406,3.168 -4.127,5.651 -7.313,6.962 C 7.64,-3.744 6.007,-3.472 4.259,-3.461 3.193,-3.454 -0.246,-4.088 -0.454,-2.362 -0.614,-1.021 -0.004,-0.003 0,0" />
      </g>
      <g
         transform="translate(680.9731,172.3496)"
         id="g328">
        <path
           id="pelo_oscuro"
           style="fill:#b92635;fill-opacity:1;fill-rule:nonzero;stroke:none"
           d="M 0,0 C -10.007,8.159 -6.93,28.366 6.946,29.94 11.615,30.47 21.224,28.858 23.06,23.544 23.706,21.679 21.688,21.381 19.688,20.843 14.912,19.562 10.813,16.275 8.261,12.077 6.961,9.939 6.219,7.703 5.813,5.241 5.569,3.741 5.703,-1.25 3.227,-1.158 1.301,-1.088 0.003,-0.002 0,0" />
      </g>
    </g>
    <g
       transform="matrix(1.7849874,0,0,-1.7849889,-1193.7402,1243.0523)"
       id="logotipo">
      <g
         transform="translate(718.2769,124.5498)"
         id="g332">
        <path
           id="path334"
           style="fill:#231f20;fill-opacity:1;fill-rule:nonzero;stroke:none"
           d="m 0,0 0,-1.263 c -0.968,1.024 -2.108,1.534 -3.428,1.534 -1.121,0 -2.071,-0.409 -2.848,-1.23 -0.781,-0.817 -1.169,-1.785 -1.169,-2.895 0,-1.112 0.385,-2.085 1.159,-2.918 0.769,-0.833 1.716,-1.252 2.839,-1.252 1.429,0 2.622,0.568 3.575,1.702 l 0,-1.282 c -1.027,-0.897 -2.208,-1.344 -3.543,-1.344 -1.433,0 -2.624,0.491 -3.572,1.471 -0.951,0.983 -1.423,2.191 -1.423,3.623 0,1.416 0.479,2.615 1.442,3.589 0.963,0.974 2.155,1.463 3.574,1.463 1.323,0 2.455,-0.4 3.394,-1.198" />
      </g>
      <g
         transform="translate(720.8501,121.5215)"
         id="g336">
        <path
           id="path338"
           style="fill:#231f20;fill-opacity:1;fill-rule:nonzero;stroke:none"
           d="M 0,0 7.487,0 C 7.362,0.9 6.969,1.665 6.31,2.296 5.594,2.965 4.752,3.299 3.784,3.299 2.803,3.299 1.948,2.976 1.217,2.326 0.488,1.676 0.08,0.9 0,0 m 8.454,-0.929 -8.454,0 c -0.031,-1.195 0.327,-2.173 1.069,-2.93 0.744,-0.756 1.684,-1.137 2.822,-1.137 1.5,0 2.644,0.724 3.427,2.164 L 8.12,-3.294 C 7.189,-5.045 5.735,-5.92 3.756,-5.92 c -1.406,0 -2.552,0.504 -3.439,1.517 -0.856,0.965 -1.287,2.16 -1.287,3.577 0,1.401 0.432,2.582 1.29,3.536 0.902,1.011 2.049,1.517 3.446,1.517 1.433,0 2.589,-0.513 3.462,-1.536 0.832,-0.969 1.24,-2.172 1.226,-3.62" />
      </g>
      <path
         id="path340"
         style="fill:#231f20;fill-opacity:1;fill-rule:nonzero;stroke:none"
         d="m 732.889,115.801 -0.968,0 0,9.746 0.968,0 0,-9.746 z m -0.464,13.851 c 0.24,0 0.444,-0.086 0.614,-0.254 0.167,-0.168 0.252,-0.372 0.252,-0.611 0,-0.24 -0.085,-0.442 -0.252,-0.615 -0.17,-0.167 -0.374,-0.25 -0.614,-0.25 -0.238,0 -0.444,0.083 -0.613,0.25 -0.167,0.173 -0.252,0.375 -0.252,0.615 0,0.239 0.085,0.443 0.252,0.611 0.169,0.168 0.375,0.254 0.613,0.254" />
      <g
         transform="translate(741.2251,116.5254)"
         id="g342">
        <path
           id="path344"
           style="fill:#231f20;fill-opacity:1;fill-rule:nonzero;stroke:none"
           d="m 0,0 c 1.153,0 2.091,0.426 2.811,1.271 0.686,0.807 1.033,1.788 1.033,2.94 0,1.098 -0.36,2.052 -1.078,2.868 -0.717,0.811 -1.627,1.216 -2.724,1.216 -1.197,0 -2.146,-0.39 -2.843,-1.166 -0.696,-0.778 -1.044,-1.757 -1.044,-2.94 0,-1.164 0.338,-2.146 1.012,-2.936 C -2.112,0.419 -1.168,0 0,0 m -4.732,-0.725 0,17.395 0.965,0 0,-9.34 c 0.866,1.26 2.124,1.893 3.781,1.893 1.44,0 2.602,-0.474 3.479,-1.422 C 4.372,6.853 4.812,5.656 4.812,4.211 4.812,2.753 4.38,1.537 3.517,0.571 2.609,-0.427 1.428,-0.924 -0.029,-0.924 c -0.751,0 -1.472,0.173 -2.166,0.522 -0.695,0.351 -1.216,0.828 -1.572,1.428 l 0,-1.751 -0.965,0 z" />
      </g>
      <g
         transform="translate(752.145,124.8203)"
         id="g346">
        <path
           id="path348"
           style="fill:#231f20;fill-opacity:1;fill-rule:nonzero;stroke:none"
           d="m 0,0 c -1.078,0 -1.979,-0.408 -2.691,-1.229 -0.716,-0.818 -1.074,-1.772 -1.074,-2.855 0,-1.152 0.343,-2.133 1.029,-2.939 0.73,-0.846 1.663,-1.272 2.799,-1.272 1.193,0 2.14,0.431 2.841,1.293 0.658,0.792 0.988,1.801 0.988,3.023 0,1.138 -0.36,2.086 -1.074,2.843 C 2.104,-0.379 1.166,0 0,0 m 4.812,0.727 0,-9.747 -0.967,0 0,1.751 C 3.493,-7.869 2.968,-8.346 2.273,-8.697 1.581,-9.046 0.859,-9.219 0.109,-9.219 c -1.459,0 -2.63,0.491 -3.513,1.472 -0.885,0.982 -1.328,2.205 -1.328,3.663 0,1.445 0.439,2.642 1.318,3.59 0.877,0.948 2.036,1.422 3.481,1.422 1.656,0 2.913,-0.633 3.778,-1.893 l 0,1.692 0.967,0 z" />
      </g>
      <path
         id="path350"
         style="fill:#231f20;fill-opacity:1;fill-rule:nonzero;stroke:none"
         d="m 761.073,115.801 -0.967,0 0,17.395 0.967,0 0,-17.395 z" />
      <g
         transform="translate(767.4019,121.4551)"
         id="g352">
        <path
           id="path354"
           style="fill:#b92635;fill-opacity:1;fill-rule:nonzero;stroke:none"
           d="M 0,0 0,7.096 C 0,7.913 0.14,8.521 0.421,8.924 0.703,9.326 1.135,9.527 1.71,9.527 2.28,9.527 2.709,9.326 2.994,8.924 3.28,8.521 3.423,7.913 3.423,7.096 l 0,-8.198 C 3.423,-2.728 3.05,-3.961 2.305,-4.8 1.559,-5.637 0.466,-6.054 -0.968,-6.054 c -1.12,0 -2.051,0.237 -2.792,0.71 -0.742,0.476 -1.113,1.058 -1.113,1.746 0,0.457 0.147,0.835 0.438,1.127 0.291,0.294 0.671,0.443 1.139,0.443 0.295,0 0.676,-0.123 1.145,-0.363 0.464,-0.241 0.807,-0.363 1.027,-0.363 0.405,0 0.693,0.196 0.866,0.591 C -0.087,-1.767 0,-1.047 0,0" />
      </g>
      <g
         transform="translate(776.8813,121.7607)"
         id="g356">
        <path
           id="path358"
           style="fill:#b92635;fill-opacity:1;fill-rule:nonzero;stroke:none"
           d="M 0,0 3.58,0 1.851,5.576 0,0 z m -0.966,-3.142 -0.513,-1.511 c -0.167,-0.503 -0.387,-0.886 -0.664,-1.15 -0.279,-0.264 -0.603,-0.396 -0.971,-0.396 -0.476,0 -0.865,0.156 -1.17,0.469 -0.304,0.312 -0.457,0.706 -0.457,1.179 0,0.192 0.014,0.372 0.042,0.536 0.026,0.163 0.067,0.315 0.122,0.454 l 3.899,10.602 c 0.281,0.765 0.632,1.325 1.053,1.685 0.422,0.355 0.942,0.536 1.561,0.536 0.581,0 1.087,-0.171 1.516,-0.513 C 3.881,8.407 4.211,7.917 4.445,7.269 L 8.24,-3.512 C 8.314,-3.74 8.371,-3.942 8.409,-4.12 8.446,-4.298 8.466,-4.457 8.466,-4.593 8.466,-5.066 8.31,-5.454 7.994,-5.753 7.677,-6.05 7.271,-6.199 6.778,-6.199 c -0.438,0 -0.804,0.137 -1.095,0.411 -0.291,0.273 -0.522,0.695 -0.694,1.259 l -0.42,1.387 -5.535,0 z" />
      </g>
      <g
         transform="translate(785.7632,118.4199)"
         id="g360">
        <path
           id="path362"
           style="fill:#b92635;fill-opacity:1;fill-rule:nonzero;stroke:none"
           d="m 0,0 1.83,10.216 c 0.151,0.844 0.409,1.445 0.766,1.806 0.362,0.359 0.879,0.541 1.551,0.541 0.639,0 1.151,-0.17 1.542,-0.504 0.392,-0.337 0.672,-0.844 0.845,-1.525 l 2.276,-8.953 2.128,8.974 c 0.159,0.667 0.432,1.167 0.822,1.504 0.393,0.334 0.897,0.504 1.512,0.504 0.707,0 1.25,-0.192 1.627,-0.574 0.376,-0.38 0.639,-1.012 0.783,-1.897 l 1.667,-10.309 c 0.028,-0.149 0.048,-0.297 0.06,-0.435 0.015,-0.141 0.022,-0.267 0.022,-0.377 0,-0.548 -0.157,-0.985 -0.475,-1.305 -0.313,-0.324 -0.731,-0.484 -1.255,-0.484 -0.479,0 -0.859,0.165 -1.141,0.493 -0.282,0.329 -0.463,0.83 -0.545,1.502 L 12.934,8.13 C 12.104,4.549 11.488,2.017 11.087,0.536 10.686,-0.946 10.374,-1.861 10.155,-2.213 10.02,-2.432 9.838,-2.588 9.616,-2.681 9.392,-2.772 9.097,-2.818 8.726,-2.818 c -0.578,0 -1.015,0.13 -1.316,0.39 -0.304,0.261 -0.532,0.704 -0.691,1.326 L 4.506,8.13 3.333,-0.607 C 3.223,-1.382 3.024,-1.945 2.737,-2.295 2.449,-2.646 2.05,-2.818 1.545,-2.818 c -0.502,0 -0.906,0.16 -1.212,0.484 -0.305,0.32 -0.458,0.757 -0.458,1.305 0,0.13 0.011,0.282 0.033,0.459 0.018,0.175 0.05,0.364 0.092,0.57" />
      </g>
      <g
         transform="translate(808.2749,122.6221)"
         id="g364">
        <path
           id="path366"
           style="fill:#b92635;fill-opacity:1;fill-rule:nonzero;stroke:none"
           d="m 0,0 c 0,-0.823 -0.136,-1.436 -0.407,-1.836 -0.271,-0.397 -0.685,-0.596 -1.239,-0.596 -0.55,0 -0.963,0.202 -1.237,0.605 -0.274,0.398 -0.411,1.009 -0.411,1.827 l 0,6.2 c 0,0.806 0.137,1.407 0.411,1.803 0.274,0.399 0.687,0.599 1.237,0.599 0.554,0 0.968,-0.199 1.239,-0.593 C -0.136,7.613 0,7.013 0,6.2 L 0,0 z m -3.479,-5.4 c 0,0.517 0.178,0.954 0.536,1.31 0.357,0.353 0.788,0.532 1.297,0.532 0.506,0 0.939,-0.179 1.295,-0.538 0.357,-0.358 0.538,-0.792 0.538,-1.304 0,-0.511 -0.183,-0.95 -0.542,-1.316 -0.362,-0.362 -0.791,-0.546 -1.291,-0.546 -0.509,0 -0.94,0.18 -1.297,0.543 -0.358,0.361 -0.536,0.8 -0.536,1.319" />
      </g>
    </g>
  </g>
</svg>
